<svg width="26" height="26" viewBox="0 0 26 26" fill="none" xmlns="http://www.w3.org/2000/svg">
<path d="M13 0.833405C6.10526 0.833405 0.5 6.43867 0.5 13.3334C0.5 20.2281 6.10526 25.8334 13 25.8334C19.8947 25.8334 25.5 20.2281 25.5 13.3334C25.5 6.43867 19.8947 0.833405 13 0.833405ZM13 7.9913C15.158 7.9913 16.9211 9.75446 16.9211 11.9124C16.9211 14.0703 15.1579 15.8335 13 15.8335C10.8421 15.8335 9.0789 14.0703 9.0789 11.9124C9.0789 9.75446 10.8421 7.9913 13 7.9913ZM6.15789 20.9124V20.3334C6.15789 18.6755 7.49995 17.3072 9.18412 17.3072H16.8157C18.4736 17.3072 19.8419 18.6492 19.8419 20.3334V20.9124C18.0261 22.5439 15.6313 23.5439 12.9998 23.5439C10.3686 23.5439 7.97397 22.5439 6.15818 20.9124H6.15789Z" fill="#2F2F2F"/>
</svg>
