<svg width="26" height="26" viewBox="0 0 26 26" fill="none" xmlns="http://www.w3.org/2000/svg">
<path fill-rule="evenodd" clip-rule="evenodd" d="M13.0328 0.500061C16.3344 0.500061 19.4414 1.7771 21.7945 4.10522C24.184 6.47228 25.5 9.63174 25.5 13C25.5 16.3459 24.1954 19.4909 21.8227 21.8558C19.4669 24.2063 16.3458 25.5001 13.0302 25.5001H12.969C11.0776 25.4917 9.26129 25.0677 7.57291 24.2424C7.14724 24.0361 6.65773 24.0277 6.22661 24.2257C4.72172 24.9144 3.01934 25.341 1.16974 25.4971C0.9472 25.5166 0.730282 25.4135 0.605139 25.2266C0.479993 25.0397 0.466026 24.7998 0.56614 24.5991L2.40198 20.9465C2.64121 20.4669 2.62181 19.9065 2.34358 19.4436C1.18369 17.5171 0.566313 15.3002 0.560686 13.039C0.54961 9.71547 1.82086 6.58411 4.14059 4.22253C6.45718 1.86075 9.56134 0.539155 12.877 0.500061H13.0328ZM10.8816 18.6789L9.88199 19.6288L4.80566 14.8047L9.88199 9.98064L10.8816 10.9306L7.52532 14.1148H16.0529C17.3261 14.1148 18.3593 13.133 18.3593 11.9177C18.3593 10.713 17.3206 9.7259 16.0529 9.7259H15.4274V8.35138H16.0529C18.1247 8.35138 19.8057 9.9488 19.8057 11.9177C19.8057 13.8866 18.1247 15.4946 16.0529 15.4946H7.52532L10.8816 18.6789Z" fill="#2F2F2F"/>
</svg>
