<svg width="26" height="26" viewBox="0 0 26 26" fill="none" xmlns="http://www.w3.org/2000/svg">
<path fill-rule="evenodd" clip-rule="evenodd" d="M13.2828 0.5C16.5844 0.5 19.6914 1.77704 22.0445 4.10516C24.434 6.47222 25.75 9.63168 25.75 12.9999C25.75 16.3459 24.4454 19.4909 22.0727 21.8558C19.7169 24.2062 16.5958 25.5 13.2802 25.5H13.219C11.3276 25.4916 9.51129 25.0676 7.82291 24.2424C7.39724 24.036 6.90773 24.0277 6.47661 24.2257C4.97172 24.9144 3.26934 25.3409 1.41974 25.4971C1.1972 25.5165 0.980282 25.4134 0.855139 25.2265C0.729993 25.0396 0.716026 24.7998 0.81614 24.5991L2.65198 20.9464C2.89121 20.4668 2.87181 19.9065 2.59358 19.4436C1.43369 17.517 0.816313 15.3002 0.810686 13.0389C0.79961 9.71541 2.07086 6.58405 4.39059 4.22247C6.70718 1.86069 9.81134 0.539094 13.127 0.5H13.2828ZM11.1316 18.6788L10.132 19.6288L5.05566 14.8047L10.132 9.98058L11.1316 10.9305L7.77532 14.1148H16.3029C17.5761 14.1148 18.6093 13.133 18.6093 11.9176C18.6093 10.7129 17.5706 9.72584 16.3029 9.72584H15.6774V8.35132H16.3029C18.3747 8.35132 20.0557 9.94873 20.0557 11.9176C20.0557 13.8866 18.3747 15.4946 16.3029 15.4946H7.77532L11.1316 18.6788Z" fill="currentColor"/>
</svg>
