<svg width="20" height="20" viewBox="0 0 20 20" fill="none" xmlns="http://www.w3.org/2000/svg">
<path fill-rule="evenodd" clip-rule="evenodd" d="M10.0262 0.0244141C12.6675 0.0244141 15.1532 1.04356 17.0356 2.90153C18.9472 4.79057 20 7.31198 20 10C20 12.6703 18.9563 15.1802 17.0582 17.0674C15.1735 18.9433 12.6767 19.9757 10.0241 19.9757H9.97523C8.46205 19.9691 7.00903 19.6307 5.65833 18.9721C5.31779 18.8074 4.92619 18.8007 4.58129 18.9588C3.37738 19.5084 2.01547 19.8488 0.535788 19.9734C0.35776 19.9889 0.184225 19.9067 0.0841111 19.7575C-0.0160057 19.6083 -0.0271793 19.4169 0.0529123 19.2567L1.52159 16.3418C1.71297 15.959 1.69745 15.5118 1.47487 15.1424C0.546955 13.6049 0.0530505 11.8357 0.0485492 10.0312C0.0396881 7.3788 1.05669 4.87981 2.91247 2.99514C4.76575 1.11031 7.24908 0.055613 9.9016 0.0244141H10.0262ZM8.3051 14.5319L7.50539 15.29L3.44434 11.4402L7.50539 7.59027L8.3051 8.34839L5.62006 10.8896H12.4421C13.4607 10.8896 14.2872 10.106 14.2872 9.13616C14.2872 8.17474 13.4562 7.38698 12.4421 7.38698H11.9417V6.29004H12.4421C14.0996 6.29004 15.4443 7.56486 15.4443 9.13616C15.4443 10.7075 14.0996 11.9907 12.4421 11.9907H5.62006L8.3051 14.5319Z" fill="#140F0B"/>
</svg>
